<svg id="b774b191-6793-4f7e-bda1-74532d03a454" data-name="Layer 1" xmlns="http://www.w3.org/2000/svg" width="865.76" height="682.89" viewBox="0 0 865.76 682.89"><path d="M174.46,194.48c.64,27-28.31,81.75-28.31,81.75,7.95,6.36,21.63,76.33,21.63,76.33-12.4-.64-18.45,10.81-18.45,10.81l-27.67-84.6c-1.91-13,0-19.08,0-19.08l30.22-90c3.18-8.23,40.82-11.09,40.82-11.09s45.31-5.5,59.43,4.83c0,0,17.32,11.13,30.75,46.61L263.82,228.2l-1.35-23.41L270,335.67S233.75,354.55,181.18,347l-19.44-10.39L143,272.22l31.51-77.74" fill="#0071f2"/><path d="M197,136.06l1.31,22.31s-9.23,1-5.09,7.51c0,0,1.62,3.6,13.83,5.7a28.61,28.61,0,0,0,7,.32c6.16-.49,18.09-2.29,20.47-8.9,1.32-3.69-.66-5.06-5.91-5.78,0,0-.08,0-.13.05l.32-14.68L204.1,128.94l-3.95.6Z" fill="#f9b499"/><path d="M391.69,511.88V34.63a14,14,0,0,1,14-14H762.34S727,27.06,728.65,71.14V514.08a21.33,21.33,0,0,1-21.32,21.32H415.21A23.52,23.52,0,0,1,391.69,511.88Z" fill="#ccc"/><circle cx="448.49" cy="113.25" r="26.12" opacity="0.2"/><path d="M448.49,129.94a2.77,2.77,0,0,1-1.66-.56l-16.55-12.64a2.73,2.73,0,0,1,3.31-4.34l14.7,11.22,36-34.35a2.73,2.73,0,0,1,3.77,4l-37.74,36A2.72,2.72,0,0,1,448.49,129.94Z" fill="#d1d3d4"/><circle cx="448.49" cy="198.1" r="26.12" opacity="0.2"/><path d="M448.49,214.19a2.7,2.7,0,0,1-1.66-.56L430.28,201a2.73,2.73,0,0,1,3.31-4.34l14.7,11.23,36-34.35a2.73,2.73,0,1,1,3.77,3.95l-37.74,36A2.71,2.71,0,0,1,448.49,214.19Z" fill="#d1d3d4"/><circle cx="448.12" cy="282.95" r="26.12" opacity="0.2"/><path d="M448.12,299.64a2.68,2.68,0,0,1-1.65-.56l-16.55-12.63a2.73,2.73,0,1,1,3.31-4.34l14.7,11.22L484,259a2.73,2.73,0,1,1,3.76,3.95l-37.73,36A2.73,2.73,0,0,1,448.12,299.64Z" fill="#d1d3d4"/><circle cx="448.12" cy="367.81" r="26.12" opacity="0.2"/><path d="M448.12,383.9a2.74,2.74,0,0,1-1.65-.56L429.92,370.7a2.73,2.73,0,1,1,3.31-4.34l14.7,11.22L484,343.23a2.73,2.73,0,0,1,3.76,4L450,383.14A2.74,2.74,0,0,1,448.12,383.9Z" fill="#d1d3d4"/><circle cx="452.91" cy="452.66" r="26.12" opacity="0.2"/><path d="M452.91,468.75a2.75,2.75,0,0,1-1.66-.56L434.7,455.55a2.73,2.73,0,1,1,3.31-4.34l14.7,11.23,36.05-34.35a2.73,2.73,0,1,1,3.77,4l-37.74,36A2.71,2.71,0,0,1,452.91,468.75Z" fill="#d1d3d4"/><g opacity="0.2"><rect x="502.66" y="95.91" width="164.67" height="2.73"/><rect x="502.66" y="106.45" width="128.27" height="2.73"/><rect x="502.66" y="117" width="82.34" height="2.73"/><rect x="502.66" y="127.55" width="32.66" height="2.73"/></g><g opacity="0.2"><rect x="502.66" y="180.92" width="164.67" height="2.73"/><rect x="502.66" y="191.46" width="128.27" height="2.73"/><rect x="502.66" y="202.01" width="82.34" height="2.73"/><rect x="502.66" y="212.56" width="32.66" height="2.73"/></g><g opacity="0.2"><rect x="502.66" y="265.92" width="164.67" height="2.73"/><rect x="502.66" y="276.47" width="128.27" height="2.73"/><rect x="502.66" y="287.02" width="82.34" height="2.73"/><rect x="502.66" y="297.57" width="32.66" height="2.73"/></g><g opacity="0.2"><rect x="502.66" y="350.62" width="164.67" height="2.73"/><rect x="502.66" y="361.17" width="128.27" height="2.73"/><rect x="502.66" y="371.72" width="82.34" height="2.73"/><rect x="502.66" y="382.26" width="32.66" height="2.73"/></g><g opacity="0.2"><rect x="504.53" y="435.48" width="164.67" height="2.73"/><rect x="504.53" y="446.02" width="128.27" height="2.73"/><rect x="504.53" y="456.57" width="82.34" height="2.73"/><rect x="504.53" y="467.12" width="32.66" height="2.73"/></g><path d="M728.65,93.71h72.7V59.61a39,39,0,0,0-39-39h0s-30.62,4.46-33.79,39.79Z" fill="#ccc"/><path d="M728.65,93.71h72.7V59.61a39,39,0,0,0-39-39h0s-30.62,4.46-33.79,39.79Z" opacity="0.2"/><path d="M163.3,361.31a178.87,178.87,0,0,0,3.36,23.38c2.15,10,5.86,35.93,10.39,102.88l12,137.78s19.29,5.86,29.62-3.79c0,0,5.17-136.4,4.83-155.34,0,0-2.73-72.34,0-79.57L240.08,470,156,546.82s2.42,27.55,17.57,28.93l102.3-81.63s4.82-4.82,4.48-22.74L270,335.67S231.45,357,162,345.08Z" fill="#2f2e41"/><path d="M156.54,550.52l-16.08,13.62A9.57,9.57,0,0,0,137.73,575c4.41,11.17,14,33.85,22.39,43.24a9.6,9.6,0,0,0,8.75,3.11l.19,0A9.51,9.51,0,0,0,175.59,607c-5.47-9.09-11.67-23.54-2-31.27C173.6,575.75,160.65,575.93,156.54,550.52Z" fill="#0071f2"/><path d="M189.1,625.35v9.09a9.2,9.2,0,0,0,5.54,8.44l42.51,18.42a7.48,7.48,0,0,0,7.07-.61l5.37-3.5a7.5,7.5,0,0,0,.39-12.28l-31.26-23.35S209.73,630.65,189.1,625.35Z" fill="#0071f2"/><path d="M97.33,386.59l14.47-13.68s3.65,30.14,34.19,36.58L131.2,423.81S102.1,418.08,97.33,386.59Z" fill="#bcbec0"/><path d="M97.33,386.59,64.41,419s0,29.11,32.92,36.26l33.87-31.48S103.53,418.56,97.33,386.59Z" fill="#2f2e41"/><polygon points="343.51 152.34 417.94 116.7 377.38 190.99 359.73 185.26 343.51 165.22 343.51 152.34" fill="#2f2e41"/><polygon points="399.84 149.84 384.64 132.65 417.94 116.7 399.84 149.84" fill="#d1d3d4"/><path d="M223.56,386.65s2-12.14,4.74-15.15c0,0,9.71,95,26.12,102.66,0,0-9.36-1.15-15.43,2.32l-12.78,10.17,6,42.36-10.45,8.34,1.56-52L240.08,470Z" opacity="0.2"/><polygon points="265.39 207.19 268.38 223.86 263.82 228.2 261.89 200.51 265.39 207.19" opacity="0.2"/><path d="M198.72,127.3s7,28.22,30,22.34l.08-4.28S217.93,140.7,198.72,127.3Z" fill="#f7aa92"/><ellipse cx="223.81" cy="116.7" rx="21.75" ry="31.43" fill="#f9b499"/><path d="M202.07,116.7S227.21,133,241.79,99c0,0,2.8,6.77,3.24,10.8a17.28,17.28,0,0,0,2.35-8.1,22.48,22.48,0,0,0-9.7-19.7c-8.72-6.2-24.83-12.64-46.26.45,0,0-15.71,8.38-14.66,34.22,0,0,1,19.91,22,22,0,0,4.43.94,1.64-8.53C200.4,130.17,192.16,122.15,202.07,116.7Z" fill="#2f2e41"/><ellipse cx="174.73" cy="100.87" rx="22.28" ry="27.17" fill="#2f2e41"/><ellipse cx="202.07" cy="123.63" rx="5.05" ry="6.93" fill="#f9b499"/><path d="M161.93,325.2l3.66-3.49s-14.59-42.94-7.67-56.54c0,0,27.67-48.42,16.94-74.18,0,0,.93,28.09-28.71,85.24C146.15,276.23,150.19,275.49,161.93,325.2Z" opacity="0.2"/><path d="M111.8,372.91,343.51,152.34v12.88l16.22,20L377.38,191,146,409.49S115.63,404.8,111.8,372.91Z" fill="#d1d3d4"/><path d="M115.68,386.72l227.83-221.5,16.22,20L131.2,403.74S121.66,399,115.68,386.72Z" opacity="0.21"/><path d="M149.33,363.37s9.55,30.38,16.7,29.9c0,0,15.75-4.13,17.65-14.94,0,0-8.58-9.71-3.65-7.64,0,0,6.68,6.52,9.06,4,0,0,3.49-6.21-23.06-22.11C166,352.56,157.6,351.77,149.33,363.37Z" fill="#f9b499"/><path d="M141.74,340.17l7.59,23.2s7.25-10.81,16.7-10.81l-4.1-27.36Z" fill="#0071f2"/><path d="M286.72,278.07c-2.47-9.22-5.06-25.9,5.74-33,0,0,11.89-7.24,13.28,13.6L312.8,252S316.21,276.41,296,283A7.23,7.23,0,0,1,286.72,278.07Z" fill="#f9b499"/></svg>